<svg xmlns="http://www.w3.org/2000/svg" width="11.994" height="15.08" viewBox="0 0 11.994 15.08">
  <g id="Group_1262" data-name="Group 1262" transform="translate(0.1 0.1)">
    <g id="Group_45" data-name="Group 45" transform="translate(0 1.946)">
      <path id="Path_38" data-name="Path 38" d="M-2433.207,737.481h-7.072a1.389,1.389,0,0,1-1.388-1.388V725.935a1.389,1.389,0,0,1,1.388-1.388h7.072a1.389,1.389,0,0,1,1.388,1.388v10.158A1.389,1.389,0,0,1-2433.207,737.481Zm-7.072-12.447a.9.9,0,0,0-.9.9v10.158a.9.9,0,0,0,.9.9h7.072a.9.9,0,0,0,.9-.9V725.935a.9.9,0,0,0-.9-.9Z" transform="translate(2441.667 -724.547)" fill="#07fc00" stroke="#07fc00" stroke-width="0.2"/>
    </g>
    <g id="Group_46" data-name="Group 46" transform="translate(1.946 0)">
      <path id="Path_39" data-name="Path 39" d="M-2424.56,728.832h-.8v-.487h.8a.9.9,0,0,0,.9-.9v-10.16a.9.9,0,0,0-.9-.9h-7.072a.9.9,0,0,0-.9.9v.8h-.487v-.8a1.389,1.389,0,0,1,1.389-1.387h7.072a1.389,1.389,0,0,1,1.387,1.387v10.16A1.389,1.389,0,0,1-2424.56,728.832Z" transform="translate(2433.021 -715.899)" fill="#07fc00" stroke="#07fc00" stroke-width="0.2"/>
    </g>
  </g>
</svg>
