<svg width="24" height="25" viewBox="0 0 24 25" fill="none" xmlns="http://www.w3.org/2000/svg">
<path d="M6.17071 18.892C6.58254 17.7268 7.69378 16.892 9 16.892C10.3062 16.892 11.4175 17.7268 11.8293 18.892H22V20.892H11.8293C11.4175 22.0572 10.3062 22.892 9 22.892C7.69378 22.892 6.58254 22.0572 6.17071 20.892H2V18.892H6.17071ZM12.1707 11.892C12.5825 10.7268 13.6938 9.89198 15 9.89198C16.3062 9.89198 17.4175 10.7268 17.8293 11.892H22V13.892H17.8293C17.4175 15.0572 16.3062 15.892 15 15.892C13.6938 15.892 12.5825 15.0572 12.1707 13.892H2V11.892H12.1707ZM6.17071 4.89198C6.58254 3.72679 7.69378 2.89198 9 2.89198C10.3062 2.89198 11.4175 3.72679 11.8293 4.89198H22V6.89198H11.8293C11.4175 8.05717 10.3062 8.89198 9 8.89198C7.69378 8.89198 6.58254 8.05717 6.17071 6.89198H2V4.89198H6.17071ZM9 6.89198C9.55228 6.89198 10 6.44426 10 5.89198C10 5.3397 9.55228 4.89198 9 4.89198C8.44772 4.89198 8 5.3397 8 5.89198C8 6.44426 8.44772 6.89198 9 6.89198ZM15 13.892C15.5523 13.892 16 13.4443 16 12.892C16 12.3397 15.5523 11.892 15 11.892C14.4477 11.892 14 12.3397 14 12.892C14 13.4443 14.4477 13.892 15 13.892ZM9 20.892C9.55228 20.892 10 20.4443 10 19.892C10 19.3397 9.55228 18.892 9 18.892C8.44772 18.892 8 19.3397 8 19.892C8 20.4443 8.44772 20.892 9 20.892Z" fill="black"/>
</svg>
