<svg width="24" height="25" viewBox="0 0 24 25" fill="none" xmlns="http://www.w3.org/2000/svg">
<path d="M11 2.89198C15.968 2.89198 20 6.92398 20 11.892C20 16.86 15.968 20.892 11 20.892C6.032 20.892 2 16.86 2 11.892C2 6.92398 6.032 2.89198 11 2.89198ZM11 18.892C14.8675 18.892 18 15.7595 18 11.892C18 8.02448 14.8675 4.89198 11 4.89198C7.1325 4.89198 4 8.02448 4 11.892C4 15.7595 7.1325 18.892 11 18.892ZM19.4853 18.9631L22.3137 21.7915L20.8995 23.2057L18.0711 20.3773L19.4853 18.9631Z" fill="black"/>
</svg>
