<svg width="185" height="14" viewBox="0 0 185 14" fill="none" xmlns="http://www.w3.org/2000/svg">
<path d="M3.73145 7.99219L5.70703 1.04688H6.66406L6.11035 3.74707L3.98438 11H3.03418L3.73145 7.99219ZM1.6875 1.04688L3.25977 7.85547L3.73145 11H2.78809L0.375 1.04688H1.6875ZM9.2207 7.84863L10.7588 1.04688H12.0781L9.67188 11H8.72852L9.2207 7.84863ZM6.80762 1.04688L8.72852 7.99219L9.42578 11H8.47559L6.4248 3.74707L5.86426 1.04688H6.80762ZM14.6143 0.5V11H13.3496V0.5H14.6143ZM14.3135 7.02148L13.7871 7.00098C13.7917 6.49512 13.8669 6.02799 14.0127 5.59961C14.1585 5.16667 14.3636 4.79069 14.6279 4.47168C14.8923 4.15267 15.2067 3.90658 15.5713 3.7334C15.9404 3.55566 16.3483 3.4668 16.7949 3.4668C17.1595 3.4668 17.4876 3.51693 17.7793 3.61719C18.071 3.71289 18.3193 3.86784 18.5244 4.08203C18.734 4.29622 18.8936 4.57422 19.0029 4.91602C19.1123 5.25326 19.167 5.66569 19.167 6.15332V11H17.8955V6.13965C17.8955 5.75228 17.8385 5.44238 17.7246 5.20996C17.6107 4.97298 17.4443 4.80208 17.2256 4.69727C17.0068 4.58789 16.738 4.5332 16.4189 4.5332C16.1045 4.5332 15.8174 4.59928 15.5576 4.73145C15.3024 4.86361 15.0814 5.0459 14.8945 5.27832C14.7122 5.51074 14.5687 5.77734 14.4639 6.07812C14.3636 6.37435 14.3135 6.6888 14.3135 7.02148ZM24.1299 11.1367C23.6149 11.1367 23.1478 11.0501 22.7285 10.877C22.3138 10.6992 21.9561 10.4508 21.6553 10.1318C21.359 9.81283 21.1312 9.43457 20.9717 8.99707C20.8122 8.55957 20.7324 8.08105 20.7324 7.56152V7.27441C20.7324 6.67285 20.8213 6.13737 20.999 5.66797C21.1768 5.19401 21.4183 4.79297 21.7236 4.46484C22.029 4.13672 22.3753 3.88835 22.7627 3.71973C23.1501 3.55111 23.5511 3.4668 23.9658 3.4668C24.4945 3.4668 24.9502 3.55794 25.333 3.74023C25.7204 3.92253 26.0371 4.17773 26.2832 4.50586C26.5293 4.82943 26.7116 5.21224 26.8301 5.6543C26.9486 6.0918 27.0078 6.57031 27.0078 7.08984V7.65723H21.4844V6.625H25.7432V6.5293C25.7249 6.20117 25.6566 5.88216 25.5381 5.57227C25.4242 5.26237 25.2419 5.00716 24.9912 4.80664C24.7406 4.60612 24.3988 4.50586 23.9658 4.50586C23.6787 4.50586 23.4144 4.56738 23.1729 4.69043C22.9313 4.80892 22.724 4.98665 22.5508 5.22363C22.3776 5.46061 22.2432 5.75 22.1475 6.0918C22.0518 6.43359 22.0039 6.8278 22.0039 7.27441V7.56152C22.0039 7.91243 22.0518 8.24284 22.1475 8.55273C22.2477 8.85807 22.3913 9.12695 22.5781 9.35938C22.7695 9.5918 22.9997 9.77409 23.2686 9.90625C23.542 10.0384 23.8519 10.1045 24.1982 10.1045C24.6449 10.1045 25.0231 10.0133 25.333 9.83105C25.6429 9.64876 25.9141 9.40495 26.1465 9.09961L26.9121 9.70801C26.7526 9.94954 26.5498 10.1797 26.3037 10.3984C26.0576 10.6172 25.7546 10.7949 25.3945 10.9316C25.0391 11.0684 24.6175 11.1367 24.1299 11.1367ZM29.749 4.76562V11H28.4844V3.60352H29.7148L29.749 4.76562ZM32.0596 3.5625L32.0527 4.73828C31.9479 4.71549 31.8477 4.70182 31.752 4.69727C31.6608 4.68815 31.556 4.68359 31.4375 4.68359C31.1458 4.68359 30.8883 4.72917 30.665 4.82031C30.4417 4.91146 30.2526 5.03906 30.0977 5.20312C29.9427 5.36719 29.8197 5.56315 29.7285 5.79102C29.6419 6.01432 29.585 6.26042 29.5576 6.5293L29.2021 6.73438C29.2021 6.28776 29.2454 5.86849 29.332 5.47656C29.4232 5.08464 29.5622 4.73828 29.749 4.4375C29.9359 4.13216 30.1729 3.89518 30.46 3.72656C30.7516 3.55339 31.098 3.4668 31.499 3.4668C31.5902 3.4668 31.695 3.47819 31.8135 3.50098C31.932 3.51921 32.014 3.53971 32.0596 3.5625ZM36.1611 11.1367C35.6462 11.1367 35.179 11.0501 34.7598 10.877C34.3451 10.6992 33.9873 10.4508 33.6865 10.1318C33.3903 9.81283 33.1624 9.43457 33.0029 8.99707C32.8434 8.55957 32.7637 8.08105 32.7637 7.56152V7.27441C32.7637 6.67285 32.8525 6.13737 33.0303 5.66797C33.208 5.19401 33.4495 4.79297 33.7549 4.46484C34.0602 4.13672 34.4066 3.88835 34.7939 3.71973C35.1813 3.55111 35.5824 3.4668 35.9971 3.4668C36.5257 3.4668 36.9814 3.55794 37.3643 3.74023C37.7516 3.92253 38.0684 4.17773 38.3145 4.50586C38.5605 4.82943 38.7428 5.21224 38.8613 5.6543C38.9798 6.0918 39.0391 6.57031 39.0391 7.08984V7.65723H33.5156V6.625H37.7744V6.5293C37.7562 6.20117 37.6878 5.88216 37.5693 5.57227C37.4554 5.26237 37.2731 5.00716 37.0225 4.80664C36.7718 4.60612 36.43 4.50586 35.9971 4.50586C35.71 4.50586 35.4456 4.56738 35.2041 4.69043C34.9626 4.80892 34.7552 4.98665 34.582 5.22363C34.4089 5.46061 34.2744 5.75 34.1787 6.0918C34.083 6.43359 34.0352 6.8278 34.0352 7.27441V7.56152C34.0352 7.91243 34.083 8.24284 34.1787 8.55273C34.279 8.85807 34.4225 9.12695 34.6094 9.35938C34.8008 9.5918 35.0309 9.77409 35.2998 9.90625C35.5732 10.0384 35.8831 10.1045 36.2295 10.1045C36.6761 10.1045 37.0544 10.0133 37.3643 9.83105C37.6742 9.64876 37.9453 9.40495 38.1777 9.09961L38.9434 9.70801C38.7839 9.94954 38.5811 10.1797 38.335 10.3984C38.0889 10.6172 37.7858 10.7949 37.4258 10.9316C37.0703 11.0684 36.6488 11.1367 36.1611 11.1367ZM47.3926 9.48926L50.3252 1.04688H51.7539L48.0693 11H47.0508L47.3926 9.48926ZM44.6514 1.04688L47.5566 9.48926L47.9189 11H46.9004L43.2227 1.04688H44.6514ZM54.2764 3.60352V11H53.0049V3.60352H54.2764ZM52.9092 1.6416C52.9092 1.43652 52.9707 1.26335 53.0938 1.12207C53.2214 0.980794 53.4082 0.910156 53.6543 0.910156C53.8958 0.910156 54.0804 0.980794 54.208 1.12207C54.3402 1.26335 54.4062 1.43652 54.4062 1.6416C54.4062 1.83757 54.3402 2.00618 54.208 2.14746C54.0804 2.28418 53.8958 2.35254 53.6543 2.35254C53.4082 2.35254 53.2214 2.28418 53.0938 2.14746C52.9707 2.00618 52.9092 1.83757 52.9092 1.6416ZM60.6133 9.03809C60.6133 8.85579 60.5723 8.68717 60.4902 8.53223C60.4128 8.37272 60.251 8.22917 60.0049 8.10156C59.7633 7.9694 59.3988 7.85547 58.9111 7.75977C58.501 7.67318 58.1296 7.57064 57.7969 7.45215C57.4688 7.33366 57.1885 7.1901 56.9561 7.02148C56.7282 6.85286 56.5527 6.65462 56.4297 6.42676C56.3066 6.19889 56.2451 5.93229 56.2451 5.62695C56.2451 5.33529 56.3089 5.05957 56.4365 4.7998C56.5687 4.54004 56.7533 4.3099 56.9902 4.10938C57.2318 3.90885 57.5212 3.75163 57.8584 3.6377C58.1956 3.52376 58.5716 3.4668 58.9863 3.4668C59.5788 3.4668 60.0846 3.57161 60.5039 3.78125C60.9232 3.99089 61.2445 4.27116 61.4678 4.62207C61.6911 4.96842 61.8027 5.35352 61.8027 5.77734H60.5381C60.5381 5.57227 60.4766 5.37402 60.3535 5.18262C60.235 4.98665 60.0596 4.82487 59.8271 4.69727C59.5993 4.56966 59.319 4.50586 58.9863 4.50586C58.6354 4.50586 58.3506 4.56055 58.1318 4.66992C57.9176 4.77474 57.7604 4.90918 57.6602 5.07324C57.5645 5.2373 57.5166 5.41048 57.5166 5.59277C57.5166 5.72949 57.5394 5.85254 57.585 5.96191C57.6351 6.06673 57.7217 6.16471 57.8447 6.25586C57.9678 6.34245 58.141 6.42448 58.3643 6.50195C58.5876 6.57943 58.8724 6.6569 59.2188 6.73438C59.8249 6.87109 60.3239 7.03516 60.7158 7.22656C61.1077 7.41797 61.3994 7.65267 61.5908 7.93066C61.7822 8.20866 61.8779 8.5459 61.8779 8.94238C61.8779 9.26595 61.8096 9.56217 61.6729 9.83105C61.5407 10.0999 61.347 10.3324 61.0918 10.5283C60.8411 10.7197 60.5404 10.8701 60.1895 10.9795C59.8431 11.0843 59.4535 11.1367 59.0205 11.1367C58.3688 11.1367 57.8174 11.0205 57.3662 10.7881C56.915 10.5557 56.5732 10.2549 56.3408 9.88574C56.1084 9.5166 55.9922 9.12695 55.9922 8.7168H57.2637C57.2819 9.06315 57.3822 9.33887 57.5645 9.54395C57.7467 9.74447 57.9701 9.88802 58.2344 9.97461C58.4987 10.0566 58.7607 10.0977 59.0205 10.0977C59.3669 10.0977 59.6562 10.0521 59.8887 9.96094C60.1257 9.86979 60.3057 9.74447 60.4287 9.58496C60.5518 9.42546 60.6133 9.24316 60.6133 9.03809ZM64.9131 3.60352V11H63.6416V3.60352H64.9131ZM63.5459 1.6416C63.5459 1.43652 63.6074 1.26335 63.7305 1.12207C63.8581 0.980794 64.0449 0.910156 64.291 0.910156C64.5326 0.910156 64.7171 0.980794 64.8447 1.12207C64.9769 1.26335 65.043 1.43652 65.043 1.6416C65.043 1.83757 64.9769 2.00618 64.8447 2.14746C64.7171 2.28418 64.5326 2.35254 64.291 2.35254C64.0449 2.35254 63.8581 2.28418 63.7305 2.14746C63.6074 2.00618 63.5459 1.83757 63.5459 1.6416ZM66.6084 7.38379V7.22656C66.6084 6.69336 66.6859 6.19889 66.8408 5.74316C66.9958 5.28288 67.2191 4.88411 67.5107 4.54688C67.8024 4.20508 68.1556 3.94076 68.5703 3.75391C68.985 3.5625 69.4499 3.4668 69.9648 3.4668C70.4844 3.4668 70.9515 3.5625 71.3662 3.75391C71.7855 3.94076 72.141 4.20508 72.4326 4.54688C72.7288 4.88411 72.9544 5.28288 73.1094 5.74316C73.2643 6.19889 73.3418 6.69336 73.3418 7.22656V7.38379C73.3418 7.91699 73.2643 8.41146 73.1094 8.86719C72.9544 9.32292 72.7288 9.72168 72.4326 10.0635C72.141 10.4007 71.7878 10.665 71.373 10.8564C70.9629 11.0433 70.498 11.1367 69.9785 11.1367C69.459 11.1367 68.9919 11.0433 68.5771 10.8564C68.1624 10.665 67.807 10.4007 67.5107 10.0635C67.2191 9.72168 66.9958 9.32292 66.8408 8.86719C66.6859 8.41146 66.6084 7.91699 66.6084 7.38379ZM67.873 7.22656V7.38379C67.873 7.75293 67.9163 8.10156 68.0029 8.42969C68.0895 8.75326 68.2194 9.04036 68.3926 9.29102C68.5703 9.54167 68.7913 9.73991 69.0557 9.88574C69.32 10.027 69.6276 10.0977 69.9785 10.0977C70.3249 10.0977 70.6279 10.027 70.8877 9.88574C71.152 9.73991 71.3708 9.54167 71.5439 9.29102C71.7171 9.04036 71.847 8.75326 71.9336 8.42969C72.0247 8.10156 72.0703 7.75293 72.0703 7.38379V7.22656C72.0703 6.86198 72.0247 6.5179 71.9336 6.19434C71.847 5.86621 71.7148 5.57682 71.5371 5.32617C71.3639 5.07096 71.1452 4.87044 70.8809 4.72461C70.6211 4.57878 70.3158 4.50586 69.9648 4.50586C69.6185 4.50586 69.3132 4.57878 69.0488 4.72461C68.7891 4.87044 68.5703 5.07096 68.3926 5.32617C68.2194 5.57682 68.0895 5.86621 68.0029 6.19434C67.9163 6.5179 67.873 6.86198 67.873 7.22656ZM76.1924 5.18262V11H74.9277V3.60352H76.124L76.1924 5.18262ZM75.8916 7.02148L75.3652 7.00098C75.3698 6.49512 75.445 6.02799 75.5908 5.59961C75.7367 5.16667 75.9417 4.79069 76.2061 4.47168C76.4704 4.15267 76.7848 3.90658 77.1494 3.7334C77.5186 3.55566 77.9264 3.4668 78.373 3.4668C78.7376 3.4668 79.0658 3.51693 79.3574 3.61719C79.6491 3.71289 79.8975 3.86784 80.1025 4.08203C80.3122 4.29622 80.4717 4.57422 80.5811 4.91602C80.6904 5.25326 80.7451 5.66569 80.7451 6.15332V11H79.4736V6.13965C79.4736 5.75228 79.4167 5.44238 79.3027 5.20996C79.1888 4.97298 79.0225 4.80208 78.8037 4.69727C78.585 4.58789 78.3161 4.5332 77.9971 4.5332C77.6826 4.5332 77.3955 4.59928 77.1357 4.73145C76.8805 4.86361 76.6595 5.0459 76.4727 5.27832C76.2904 5.51074 76.1468 5.77734 76.042 6.07812C75.9417 6.37435 75.8916 6.6888 75.8916 7.02148ZM86.7471 1.04688H88.0254L91.2861 9.16113L94.54 1.04688H95.8252L91.7783 11H90.7803L86.7471 1.04688ZM86.3301 1.04688H87.458L87.6426 7.11719V11H86.3301V1.04688ZM95.1074 1.04688H96.2354V11H94.9229V7.11719L95.1074 1.04688ZM101.431 11.1367C100.916 11.1367 100.449 11.0501 100.029 10.877C99.6146 10.6992 99.2568 10.4508 98.9561 10.1318C98.6598 9.81283 98.432 9.43457 98.2725 8.99707C98.113 8.55957 98.0332 8.08105 98.0332 7.56152V7.27441C98.0332 6.67285 98.1221 6.13737 98.2998 5.66797C98.4775 5.19401 98.7191 4.79297 99.0244 4.46484C99.3298 4.13672 99.6761 3.88835 100.063 3.71973C100.451 3.55111 100.852 3.4668 101.267 3.4668C101.795 3.4668 102.251 3.55794 102.634 3.74023C103.021 3.92253 103.338 4.17773 103.584 4.50586C103.83 4.82943 104.012 5.21224 104.131 5.6543C104.249 6.0918 104.309 6.57031 104.309 7.08984V7.65723H98.7852V6.625H103.044V6.5293C103.026 6.20117 102.957 5.88216 102.839 5.57227C102.725 5.26237 102.543 5.00716 102.292 4.80664C102.041 4.60612 101.7 4.50586 101.267 4.50586C100.979 4.50586 100.715 4.56738 100.474 4.69043C100.232 4.80892 100.025 4.98665 99.8516 5.22363C99.6784 5.46061 99.5439 5.75 99.4482 6.0918C99.3525 6.43359 99.3047 6.8278 99.3047 7.27441V7.56152C99.3047 7.91243 99.3525 8.24284 99.4482 8.55273C99.5485 8.85807 99.6921 9.12695 99.8789 9.35938C100.07 9.5918 100.3 9.77409 100.569 9.90625C100.843 10.0384 101.153 10.1045 101.499 10.1045C101.946 10.1045 102.324 10.0133 102.634 9.83105C102.944 9.64876 103.215 9.40495 103.447 9.09961L104.213 9.70801C104.053 9.94954 103.851 10.1797 103.604 10.3984C103.358 10.6172 103.055 10.7949 102.695 10.9316C102.34 11.0684 101.918 11.1367 101.431 11.1367ZM108.854 11.1367C108.34 11.1367 107.872 11.0501 107.453 10.877C107.038 10.6992 106.681 10.4508 106.38 10.1318C106.084 9.81283 105.856 9.43457 105.696 8.99707C105.537 8.55957 105.457 8.08105 105.457 7.56152V7.27441C105.457 6.67285 105.546 6.13737 105.724 5.66797C105.901 5.19401 106.143 4.79297 106.448 4.46484C106.754 4.13672 107.1 3.88835 107.487 3.71973C107.875 3.55111 108.276 3.4668 108.69 3.4668C109.219 3.4668 109.675 3.55794 110.058 3.74023C110.445 3.92253 110.762 4.17773 111.008 4.50586C111.254 4.82943 111.436 5.21224 111.555 5.6543C111.673 6.0918 111.732 6.57031 111.732 7.08984V7.65723H106.209V6.625H110.468V6.5293C110.45 6.20117 110.381 5.88216 110.263 5.57227C110.149 5.26237 109.966 5.00716 109.716 4.80664C109.465 4.60612 109.123 4.50586 108.69 4.50586C108.403 4.50586 108.139 4.56738 107.897 4.69043C107.656 4.80892 107.449 4.98665 107.275 5.22363C107.102 5.46061 106.968 5.75 106.872 6.0918C106.776 6.43359 106.729 6.8278 106.729 7.27441V7.56152C106.729 7.91243 106.776 8.24284 106.872 8.55273C106.972 8.85807 107.116 9.12695 107.303 9.35938C107.494 9.5918 107.724 9.77409 107.993 9.90625C108.267 10.0384 108.576 10.1045 108.923 10.1045C109.369 10.1045 109.748 10.0133 110.058 9.83105C110.368 9.64876 110.639 9.40495 110.871 9.09961L111.637 9.70801C111.477 9.94954 111.274 10.1797 111.028 10.3984C110.782 10.6172 110.479 10.7949 110.119 10.9316C109.764 11.0684 109.342 11.1367 108.854 11.1367ZM116.306 3.60352V4.57422H112.307V3.60352H116.306ZM113.66 1.80566H114.925V9.16797C114.925 9.41862 114.964 9.60775 115.041 9.73535C115.118 9.86296 115.219 9.94727 115.342 9.98828C115.465 10.0293 115.597 10.0498 115.738 10.0498C115.843 10.0498 115.952 10.0407 116.066 10.0225C116.185 9.99967 116.274 9.98145 116.333 9.96777L116.34 11C116.24 11.0319 116.107 11.0615 115.943 11.0889C115.784 11.1208 115.59 11.1367 115.362 11.1367C115.052 11.1367 114.768 11.0752 114.508 10.9521C114.248 10.8291 114.041 10.624 113.886 10.3369C113.735 10.0452 113.66 9.65332 113.66 9.16113V1.80566ZM122.096 9.03809C122.096 8.85579 122.055 8.68717 121.973 8.53223C121.895 8.37272 121.733 8.22917 121.487 8.10156C121.246 7.9694 120.881 7.85547 120.394 7.75977C119.983 7.67318 119.612 7.57064 119.279 7.45215C118.951 7.33366 118.671 7.1901 118.438 7.02148C118.211 6.85286 118.035 6.65462 117.912 6.42676C117.789 6.19889 117.728 5.93229 117.728 5.62695C117.728 5.33529 117.791 5.05957 117.919 4.7998C118.051 4.54004 118.236 4.3099 118.473 4.10938C118.714 3.90885 119.004 3.75163 119.341 3.6377C119.678 3.52376 120.054 3.4668 120.469 3.4668C121.061 3.4668 121.567 3.57161 121.986 3.78125C122.406 3.99089 122.727 4.27116 122.95 4.62207C123.174 4.96842 123.285 5.35352 123.285 5.77734H122.021C122.021 5.57227 121.959 5.37402 121.836 5.18262C121.717 4.98665 121.542 4.82487 121.31 4.69727C121.082 4.56966 120.801 4.50586 120.469 4.50586C120.118 4.50586 119.833 4.56055 119.614 4.66992C119.4 4.77474 119.243 4.90918 119.143 5.07324C119.047 5.2373 118.999 5.41048 118.999 5.59277C118.999 5.72949 119.022 5.85254 119.067 5.96191C119.118 6.06673 119.204 6.16471 119.327 6.25586C119.45 6.34245 119.623 6.42448 119.847 6.50195C120.07 6.57943 120.355 6.6569 120.701 6.73438C121.307 6.87109 121.806 7.03516 122.198 7.22656C122.59 7.41797 122.882 7.65267 123.073 7.93066C123.265 8.20866 123.36 8.5459 123.36 8.94238C123.36 9.26595 123.292 9.56217 123.155 9.83105C123.023 10.0999 122.829 10.3324 122.574 10.5283C122.324 10.7197 122.023 10.8701 121.672 10.9795C121.326 11.0843 120.936 11.1367 120.503 11.1367C119.851 11.1367 119.3 11.0205 118.849 10.7881C118.397 10.5557 118.056 10.2549 117.823 9.88574C117.591 9.5166 117.475 9.12695 117.475 8.7168H118.746C118.764 9.06315 118.865 9.33887 119.047 9.54395C119.229 9.74447 119.452 9.88802 119.717 9.97461C119.981 10.0566 120.243 10.0977 120.503 10.0977C120.849 10.0977 121.139 10.0521 121.371 9.96094C121.608 9.86979 121.788 9.74447 121.911 9.58496C122.034 9.42546 122.096 9.24316 122.096 9.03809ZM135.187 5.32617V6.39941H129.8V5.32617H135.187ZM130.005 1.04688V11H128.686V1.04688H130.005ZM136.335 1.04688V11H135.022V1.04688H136.335ZM142.85 9.73535V5.92773C142.85 5.63607 142.79 5.38314 142.672 5.16895C142.558 4.9502 142.385 4.78158 142.152 4.66309C141.92 4.5446 141.633 4.48535 141.291 4.48535C140.972 4.48535 140.692 4.54004 140.45 4.64941C140.213 4.75879 140.026 4.90234 139.89 5.08008C139.757 5.25781 139.691 5.44922 139.691 5.6543H138.427C138.427 5.38997 138.495 5.12793 138.632 4.86816C138.769 4.6084 138.965 4.3737 139.22 4.16406C139.479 3.94987 139.789 3.78125 140.149 3.6582C140.514 3.5306 140.92 3.4668 141.366 3.4668C141.904 3.4668 142.378 3.55794 142.788 3.74023C143.203 3.92253 143.526 4.19824 143.759 4.56738C143.996 4.93197 144.114 5.38997 144.114 5.94141V9.38672C144.114 9.63281 144.135 9.89486 144.176 10.1729C144.221 10.4508 144.287 10.6901 144.374 10.8906V11H143.055C142.991 10.8542 142.941 10.6605 142.904 10.4189C142.868 10.1729 142.85 9.94499 142.85 9.73535ZM143.068 6.51562L143.082 7.4043H141.804C141.444 7.4043 141.122 7.43392 140.84 7.49316C140.557 7.54785 140.32 7.63216 140.129 7.74609C139.938 7.86003 139.792 8.00358 139.691 8.17676C139.591 8.34538 139.541 8.54362 139.541 8.77148C139.541 9.00391 139.593 9.21582 139.698 9.40723C139.803 9.59863 139.96 9.7513 140.17 9.86523C140.384 9.97461 140.646 10.0293 140.956 10.0293C141.343 10.0293 141.685 9.94727 141.981 9.7832C142.278 9.61914 142.512 9.41862 142.686 9.18164C142.863 8.94466 142.959 8.71452 142.973 8.49121L143.513 9.09961C143.481 9.29102 143.394 9.50293 143.253 9.73535C143.112 9.96777 142.923 10.1911 142.686 10.4053C142.453 10.6149 142.175 10.7904 141.852 10.9316C141.533 11.0684 141.173 11.1367 140.771 11.1367C140.27 11.1367 139.83 11.0387 139.452 10.8428C139.078 10.6468 138.787 10.3848 138.577 10.0566C138.372 9.72396 138.27 9.35254 138.27 8.94238C138.27 8.5459 138.347 8.19727 138.502 7.89648C138.657 7.59115 138.88 7.33822 139.172 7.1377C139.464 6.93262 139.814 6.77767 140.225 6.67285C140.635 6.56803 141.093 6.51562 141.599 6.51562H143.068ZM147.368 4.76562V11H146.104V3.60352H147.334L147.368 4.76562ZM149.679 3.5625L149.672 4.73828C149.567 4.71549 149.467 4.70182 149.371 4.69727C149.28 4.68815 149.175 4.68359 149.057 4.68359C148.765 4.68359 148.507 4.72917 148.284 4.82031C148.061 4.91146 147.872 5.03906 147.717 5.20312C147.562 5.36719 147.439 5.56315 147.348 5.79102C147.261 6.01432 147.204 6.26042 147.177 6.5293L146.821 6.73438C146.821 6.28776 146.865 5.86849 146.951 5.47656C147.042 5.08464 147.181 4.73828 147.368 4.4375C147.555 4.13216 147.792 3.89518 148.079 3.72656C148.371 3.55339 148.717 3.4668 149.118 3.4668C149.209 3.4668 149.314 3.47819 149.433 3.50098C149.551 3.51921 149.633 3.53971 149.679 3.5625ZM152.105 5.07324V11H150.834V3.60352H152.037L152.105 5.07324ZM151.846 7.02148L151.258 7.00098C151.262 6.49512 151.328 6.02799 151.456 5.59961C151.584 5.16667 151.773 4.79069 152.023 4.47168C152.274 4.15267 152.586 3.90658 152.96 3.7334C153.334 3.55566 153.767 3.4668 154.259 3.4668C154.605 3.4668 154.924 3.51693 155.216 3.61719C155.507 3.71289 155.76 3.86556 155.975 4.0752C156.189 4.28483 156.355 4.55371 156.474 4.88184C156.592 5.20996 156.651 5.60645 156.651 6.07129V11H155.387V6.13281C155.387 5.74544 155.321 5.43555 155.188 5.20312C155.061 4.9707 154.879 4.80208 154.642 4.69727C154.405 4.58789 154.127 4.5332 153.808 4.5332C153.434 4.5332 153.122 4.59928 152.871 4.73145C152.62 4.86361 152.42 5.0459 152.27 5.27832C152.119 5.51074 152.01 5.77734 151.941 6.07812C151.878 6.37435 151.846 6.6888 151.846 7.02148ZM156.638 6.32422L155.79 6.58398C155.795 6.17839 155.861 5.78874 155.988 5.41504C156.12 5.04134 156.31 4.70866 156.556 4.41699C156.806 4.12533 157.114 3.89518 157.479 3.72656C157.843 3.55339 158.26 3.4668 158.729 3.4668C159.126 3.4668 159.477 3.51921 159.782 3.62402C160.092 3.72884 160.352 3.89062 160.562 4.10938C160.776 4.32357 160.938 4.59928 161.047 4.93652C161.156 5.27376 161.211 5.6748 161.211 6.13965V11H159.939V6.12598C159.939 5.71126 159.873 5.38997 159.741 5.16211C159.614 4.92969 159.431 4.7679 159.194 4.67676C158.962 4.58105 158.684 4.5332 158.36 4.5332C158.082 4.5332 157.836 4.58105 157.622 4.67676C157.408 4.77246 157.228 4.90462 157.082 5.07324C156.936 5.2373 156.825 5.42643 156.747 5.64062C156.674 5.85482 156.638 6.08268 156.638 6.32422ZM162.79 7.38379V7.22656C162.79 6.69336 162.868 6.19889 163.022 5.74316C163.177 5.28288 163.401 4.88411 163.692 4.54688C163.984 4.20508 164.337 3.94076 164.752 3.75391C165.167 3.5625 165.632 3.4668 166.146 3.4668C166.666 3.4668 167.133 3.5625 167.548 3.75391C167.967 3.94076 168.323 4.20508 168.614 4.54688C168.91 4.88411 169.136 5.28288 169.291 5.74316C169.446 6.19889 169.523 6.69336 169.523 7.22656V7.38379C169.523 7.91699 169.446 8.41146 169.291 8.86719C169.136 9.32292 168.91 9.72168 168.614 10.0635C168.323 10.4007 167.969 10.665 167.555 10.8564C167.145 11.0433 166.68 11.1367 166.16 11.1367C165.641 11.1367 165.174 11.0433 164.759 10.8564C164.344 10.665 163.989 10.4007 163.692 10.0635C163.401 9.72168 163.177 9.32292 163.022 8.86719C162.868 8.41146 162.79 7.91699 162.79 7.38379ZM164.055 7.22656V7.38379C164.055 7.75293 164.098 8.10156 164.185 8.42969C164.271 8.75326 164.401 9.04036 164.574 9.29102C164.752 9.54167 164.973 9.73991 165.237 9.88574C165.502 10.027 165.809 10.0977 166.16 10.0977C166.507 10.0977 166.81 10.027 167.069 9.88574C167.334 9.73991 167.552 9.54167 167.726 9.29102C167.899 9.04036 168.029 8.75326 168.115 8.42969C168.206 8.10156 168.252 7.75293 168.252 7.38379V7.22656C168.252 6.86198 168.206 6.5179 168.115 6.19434C168.029 5.86621 167.896 5.57682 167.719 5.32617C167.546 5.07096 167.327 4.87044 167.062 4.72461C166.803 4.57878 166.497 4.50586 166.146 4.50586C165.8 4.50586 165.495 4.57878 165.23 4.72461C164.971 4.87044 164.752 5.07096 164.574 5.32617C164.401 5.57682 164.271 5.86621 164.185 6.19434C164.098 6.5179 164.055 6.86198 164.055 7.22656ZM172.374 5.18262V11H171.109V3.60352H172.306L172.374 5.18262ZM172.073 7.02148L171.547 7.00098C171.551 6.49512 171.627 6.02799 171.772 5.59961C171.918 5.16667 172.123 4.79069 172.388 4.47168C172.652 4.15267 172.966 3.90658 173.331 3.7334C173.7 3.55566 174.108 3.4668 174.555 3.4668C174.919 3.4668 175.247 3.51693 175.539 3.61719C175.831 3.71289 176.079 3.86784 176.284 4.08203C176.494 4.29622 176.653 4.57422 176.763 4.91602C176.872 5.25326 176.927 5.66569 176.927 6.15332V11H175.655V6.13965C175.655 5.75228 175.598 5.44238 175.484 5.20996C175.37 4.97298 175.204 4.80208 174.985 4.69727C174.767 4.58789 174.498 4.5332 174.179 4.5332C173.864 4.5332 173.577 4.59928 173.317 4.73145C173.062 4.86361 172.841 5.0459 172.654 5.27832C172.472 5.51074 172.328 5.77734 172.224 6.07812C172.123 6.37435 172.073 6.6888 172.073 7.02148ZM180.926 10.2344L182.983 3.60352H184.337L181.37 12.1416C181.302 12.3239 181.211 12.5199 181.097 12.7295C180.987 12.9437 180.846 13.1465 180.673 13.3379C180.5 13.5293 180.29 13.6842 180.044 13.8027C179.802 13.9258 179.513 13.9873 179.176 13.9873C179.076 13.9873 178.948 13.9736 178.793 13.9463C178.638 13.9189 178.529 13.8962 178.465 13.8779L178.458 12.8525C178.494 12.8571 178.551 12.8617 178.629 12.8662C178.711 12.8753 178.768 12.8799 178.8 12.8799C179.087 12.8799 179.331 12.8411 179.531 12.7637C179.732 12.6908 179.9 12.5654 180.037 12.3877C180.178 12.2145 180.299 11.9753 180.399 11.6699L180.926 10.2344ZM179.415 3.60352L181.336 9.3457L181.664 10.6787L180.755 11.1436L178.034 3.60352H179.415Z" fill="#2E2E41"/>
</svg>
