<svg width="24" height="25" viewBox="0 0 24 25" fill="none" xmlns="http://www.w3.org/2000/svg">
<path d="M3 3.89198H21C21.5523 3.89198 22 4.3397 22 4.89198V20.892C22 21.4443 21.5523 21.892 21 21.892H15C15 21.2119 14.9478 20.5439 14.8471 19.892H20V5.89198H4V9.04488C3.34806 8.94421 2.68013 8.89198 2 8.89198V4.89198C2 4.3397 2.44772 3.89198 3 3.89198ZM13 21.892H11C11 16.9214 6.97056 12.892 2 12.892V10.892C8.07513 10.892 13 15.8169 13 21.892ZM9 21.892H7C7 19.1306 4.76142 16.892 2 16.892V14.892C5.86599 14.892 9 18.026 9 21.892ZM5 21.892H2V18.892C3.65685 18.892 5 20.2351 5 21.892Z" fill="black"/>
</svg>
